<svg xmlns="http://www.w3.org/2000/svg" width="76.3" height="76.3" viewBox="0 0 76.3 76.3"><g id="Rose-Croix-Dor_Logo-or-simple" transform="translate(-191.392 -84.804)"><g id="RCO_SYMBOLE_LOGO_000000117149239232007833100000052094272105915524_" transform="translate(-185.408 -46.196)"><path id="Trac&#xE9;_1068_0000000021911123911784736000001630779772299799472_" d="M415,131a38.15,38.15,0,1,0,38.1,38.2h0A38.24,38.24,0,0,0,415,131Zm21.4,40.8c-.2.1-.2-.2-.3-.3l-13.5-23.4-.3-.6H436c.5,0,.4,0,.4.4v23.5c0,.2.1.4,0,.4Zm-13.9-20.7c4,7,8.1,14,12.1,21,.4.8.8,1.5,1.3,2.3a4.645,4.645,0,0,1,.6,2.3v7.5a.664.664,0,0,1-.4.5H393.7a.215.215,0,0,1-.2-.2v-7.3a5,5,0,0,1,.7-2.9c1.5-2.5,2.9-5,4.3-7.5,3.5-6,7-12.1,10.5-18.1,0-.1.1-.1.1-.2a1.65,1.65,0,0,1,1.5-.9c.8,0,1.5.1,2.3.1h6.9a1.709,1.709,0,0,1,1.3.7,17.623,17.623,0,0,0,1.4,2.7Zm-29.1,35.5c0-.4,0-.4.4-.4H436c.4,0,.4.1.5.5v3.6a.319.319,0,0,1-.3.3H393.9c-.5,0-.5.1-.5-.5v-3.5Zm0-15.3V148c0-.6,0-.5.5-.5h13.6a.52.52,0,0,1-.2.4c-4.5,7.8-9,15.6-13.5,23.5a.1.1,0,0,1-.1.1.215.215,0,0,1-.2.2c-.1,0-.2-.1-.1-.2v-.2ZM411,144.8l3.9-6.9,4,6.9Zm-18.8-1.5a29.03,29.03,0,0,1,5.8-4.1,33.563,33.563,0,0,1,9.7-3.7,17.372,17.372,0,0,1,3.9-.5c.8-.1,1.6-.1,2.4-.2a2.768,2.768,0,0,1,.9.1c-.4.6-.7,1.3-1.1,1.9-1.4,2.5-2.9,5-4.3,7.5a1.086,1.086,0,0,1-1.2.7H391.6a1.929,1.929,0,0,1-1-.3C391.1,144.2,391.6,143.8,392.2,143.3Zm-1.5,16.2v16.4a2.822,2.822,0,0,1-.4,1.5c-.5.8-.9,1.6-1.4,2.5-1.1,1.8-2.1,3.7-3.2,5.5-.1.2-.3.5-.4.7a.6.6,0,0,0,.4.1h4.8a.215.215,0,0,1,.2.2v6.9a.215.215,0,0,1-.2-.2,33.205,33.205,0,0,1-9.7-21.4,28.955,28.955,0,0,1,0-5.1,33.4,33.4,0,0,1,7-18.4c.8-1,1.6-1.9,2.4-2.9a2.092,2.092,0,0,0,.4-.6,4.252,4.252,0,0,1,.2,1.1c-.1,4.6-.1,9.2-.1,13.7Zm-.1,25.1H388l2.5-4.4a21.737,21.737,0,0,1,.1,4.4ZM437.5,195a33.473,33.473,0,0,1-15.9,7.9,37.757,37.757,0,0,1-4.7.6,22.853,22.853,0,0,1-3.7,0,32.95,32.95,0,0,1-16.4-5.1,36.024,36.024,0,0,1-5.8-4.5c-.1,0-.1-.1-.2-.2,0-.1,0-.2.1-.2h48.3c-.6.5-1.1,1-1.7,1.5Zm5-5.5c-1,1.2-1.9,2.4-2.9,3.6-.1.1-.1.2-.3.2a.367.367,0,0,1-.1-.3,5.437,5.437,0,0,1,0-1.8v-4.1c0-.6.1-.9.9-.9,1.4.1,2.8,0,4.3.1h.2a22.034,22.034,0,0,1-2.1,3.2Zm-3.3-8.8v-.2c0-.1,0-.1.1-.1s.1,0,.1.1l.2.3c.7,1.2,1.3,2.3,2,3.5a.367.367,0,0,1,.1.3h-2.3c-.3,0-.3,0-.3-.3C439.2,183.1,439.2,181.9,439.2,180.7Zm5.5,5.4-.1.2c-.1-.1-.2-.2-.2-.3-1.6-2.7-3.1-5.4-4.7-8.1a3.7,3.7,0,0,1-.6-2.1V146.7a4.1,4.1,0,0,0-.1-1.1.576.576,0,0,0-.6-.6H421a1.589,1.589,0,0,1-1-.8,30.711,30.711,0,0,1-1.7-3.1c-1.1-1.9-2.2-3.7-3.2-5.6a2.994,2.994,0,0,1-.4-.8,8.084,8.084,0,0,1,1.6.1,6.6,6.6,0,0,0,1.4.1,30.089,30.089,0,0,1,8.3,1.8,33.432,33.432,0,0,1,11.6,6.9A32.518,32.518,0,0,1,446,155a37.891,37.891,0,0,1,2.6,8.7,36.8,36.8,0,0,1,.5,5.8,33.986,33.986,0,0,1-2.7,13,11.749,11.749,0,0,1-1.7,3.6Z" fill="#caa55c" fill-rule="evenodd"></path><path id="Trac&#xE9;_1069_0000001030446425252787003000001088538903219100444_" d="M415,166.9a2.326,2.326,0,0,0-2.3,2.3,2.135,2.135,0,0,0,2.1,2.2h.3a2.266,2.266,0,0,0,2-2.5A2.165,2.165,0,0,0,415,166.9Z" fill="#caa55c" fill-rule="evenodd"></path></g></g></svg>